HIERARCHY
ROOT mixamorig:Hips
{
	OFFSET 0.000000 201.639420 0.000000
	CHANNELS 6 Xposition Yposition Zposition Xrotation Yrotation Zrotation
	JOINT mixamorig:Spine
	{
		OFFSET 0.006200 19.524994 -2.481800
		CHANNELS 3 Xrotation Yrotation Zrotation
		JOINT mixamorig:Spine1
		{
			OFFSET -0.000900 22.835007 -2.825400
			CHANNELS 3 Xrotation Yrotation Zrotation
			JOINT mixamorig:Spine2
			{
				OFFSET -0.020600 26.552490 -3.193300
				CHANNELS 3 Xrotation Yrotation Zrotation
				JOINT mixamorig:Neck
				{
					OFFSET -0.060000 30.701813 1.352200
					CHANNELS 3 Xrotation Yrotation Zrotation
					JOINT mixamorig:Head
					{
						OFFSET -0.087200 22.547607 3.670900
						CHANNELS 3 Xrotation Yrotation Zrotation
						JOINT mixamorig:HeadTop_End
						{
							OFFSET -0.830600 40.355194 7.893500
							CHANNELS 3 Xrotation Yrotation Zrotation
							End Site
							{
								OFFSET 0.000000 30.592346 0.000000
							}
						}
						JOINT mixamorig:RightEye
						{
							OFFSET -6.302100 18.118591 16.197100
							CHANNELS 3 Xrotation Yrotation Zrotation
							End Site
							{
								OFFSET 0.000000 30.592346 0.000000
							}
						}
						JOINT mixamorig:LeftEye
						{
							OFFSET 6.741500 18.382690 16.401899
							CHANNELS 3 Xrotation Yrotation Zrotation
							End Site
							{
								OFFSET 0.000000 30.592346 0.000000
							}
						}
					}
				}
				JOINT mixamorig:LeftShoulder
				{
					OFFSET 11.924900 18.230499 1.425400
					CHANNELS 3 Xrotation Yrotation Zrotation
					JOINT mixamorig:LeftArm
					{
						OFFSET 25.435989 -0.697632 -5.229300
						CHANNELS 3 Xrotation Yrotation Zrotation
						JOINT mixamorig:LeftForeArm
						{
							OFFSET 54.684776 0.000000 0.000000
							CHANNELS 3 Xrotation Yrotation Zrotation
							JOINT mixamorig:LeftHand
							{
								OFFSET 55.098175 0.000000 0.000000
								CHANNELS 3 Xrotation Yrotation Zrotation
								JOINT mixamorig:LeftHandMiddle1
								{
									OFFSET 23.369751 0.000000 0.000000
									CHANNELS 3 Xrotation Yrotation Zrotation
									JOINT mixamorig:LeftHandMiddle2
									{
										OFFSET 6.378677 0.000000 0.000000
										CHANNELS 3 Xrotation Yrotation Zrotation
										JOINT mixamorig:LeftHandMiddle3
										{
											OFFSET 6.148331 0.000000 0.000000
											CHANNELS 3 Xrotation Yrotation Zrotation
											JOINT mixamorig:LeftHandMiddle4
											{
												OFFSET 6.582504 0.000000 0.000000
												CHANNELS 3 Xrotation Yrotation Zrotation
												End Site
												{
													OFFSET -1.168900 6.395691 1.028606
												}
											}
										}
									}
								}
								JOINT mixamorig:LeftHandThumb1
								{
									OFFSET 7.235672 -3.848206 5.434273
									CHANNELS 3 Xrotation Yrotation Zrotation
									JOINT mixamorig:LeftHandThumb2
									{
										OFFSET 6.568451 -3.792297 3.792300
										CHANNELS 3 Xrotation Yrotation Zrotation
										JOINT mixamorig:LeftHandThumb3
										{
											OFFSET 6.063080 -3.500519 3.500518
											CHANNELS 3 Xrotation Yrotation Zrotation
											JOINT mixamorig:LeftHandThumb4
											{
												OFFSET 4.793182 -2.767334 2.767349
												CHANNELS 3 Xrotation Yrotation Zrotation
												End Site
												{
													OFFSET 0.101639 6.054260 1.275483
												}
											}
										}
									}
								}
								JOINT mixamorig:LeftHandIndex1
								{
									OFFSET 23.101074 -0.309540 4.992809
									CHANNELS 3 Xrotation Yrotation Zrotation
									JOINT mixamorig:LeftHandIndex2
									{
										OFFSET 6.226883 0.000000 0.000000
										CHANNELS 3 Xrotation Yrotation Zrotation
										JOINT mixamorig:LeftHandIndex3
										{
											OFFSET 6.094330 0.000000 0.000000
											CHANNELS 3 Xrotation Yrotation Zrotation
											JOINT mixamorig:LeftHandIndex4
											{
												OFFSET 5.482605 0.000000 0.000000
												CHANNELS 3 Xrotation Yrotation Zrotation
												End Site
												{
													OFFSET -1.427902 5.233032 0.797164
												}
											}
										}
									}
								}
								JOINT mixamorig:LeftHandRing1
								{
									OFFSET 22.299240 0.021149 -3.964172
									CHANNELS 3 Xrotation Yrotation Zrotation
									JOINT mixamorig:LeftHandRing2
									{
										OFFSET 6.321869 0.000000 0.000000
										CHANNELS 3 Xrotation Yrotation Zrotation
										JOINT mixamorig:LeftHandRing3
										{
											OFFSET 5.899796 0.000000 0.000000
											CHANNELS 3 Xrotation Yrotation Zrotation
											JOINT mixamorig:LeftHandRing4
											{
												OFFSET 6.517899 0.000000 0.000000
												CHANNELS 3 Xrotation Yrotation Zrotation
												End Site
												{
													OFFSET -1.637299 6.232208 0.980890
												}
											}
										}
									}
								}
								JOINT mixamorig:LeftHandPinky1
								{
									OFFSET 20.463791 -0.302338 -8.562233
									CHANNELS 3 Xrotation Yrotation Zrotation
									JOINT mixamorig:LeftHandPinky2
									{
										OFFSET 6.908646 0.000000 0.000000
										CHANNELS 3 Xrotation Yrotation Zrotation
										JOINT mixamorig:LeftHandPinky3
										{
											OFFSET 4.622849 0.000000 0.000000
											CHANNELS 3 Xrotation Yrotation Zrotation
											JOINT mixamorig:LeftHandPinky4
											{
												OFFSET 5.216080 0.000000 0.000000
												CHANNELS 3 Xrotation Yrotation Zrotation
												End Site
												{
													OFFSET -0.606308 5.116241 0.814926
												}
											}
										}
									}
								}
							}
						}
					}
				}
				JOINT mixamorig:RightShoulder
				{
					OFFSET -12.001300 18.284088 1.348900
					CHANNELS 3 Xrotation Yrotation Zrotation
					JOINT mixamorig:RightArm
					{
						OFFSET -25.308500 -0.751312 -5.164599
						CHANNELS 3 Xrotation Yrotation Zrotation
						JOINT mixamorig:RightForeArm
						{
							OFFSET -54.684429 0.000000 0.000000
							CHANNELS 3 Xrotation Yrotation Zrotation
							JOINT mixamorig:RightHand
							{
								OFFSET -55.150291 0.000000 0.000000
								CHANNELS 3 Xrotation Yrotation Zrotation
								JOINT mixamorig:RightHandMiddle1
								{
									OFFSET -23.317566 0.000000 0.000000
									CHANNELS 3 Xrotation Yrotation Zrotation
									JOINT mixamorig:RightHandMiddle2
									{
										OFFSET -6.378403 0.000000 0.000000
										CHANNELS 3 Xrotation Yrotation Zrotation
										JOINT mixamorig:RightHandMiddle3
										{
											OFFSET -6.148193 0.000000 0.000000
											CHANNELS 3 Xrotation Yrotation Zrotation
											JOINT mixamorig:RightHandMiddle4
											{
												OFFSET -6.583389 0.000000 0.000000
												CHANNELS 3 Xrotation Yrotation Zrotation
												End Site
												{
													OFFSET 1.171692 6.395905 1.029786
												}
											}
										}
									}
								}
								JOINT mixamorig:RightHandThumb1
								{
									OFFSET -7.190521 -3.860474 5.435846
									CHANNELS 3 Xrotation Yrotation Zrotation
									JOINT mixamorig:RightHandThumb2
									{
										OFFSET -6.567429 -3.791718 3.791708
										CHANNELS 3 Xrotation Yrotation Zrotation
										JOINT mixamorig:RightHandThumb3
										{
											OFFSET -6.062469 -3.500153 3.500166
											CHANNELS 3 Xrotation Yrotation Zrotation
											JOINT mixamorig:RightHandThumb4
											{
												OFFSET -4.792618 -2.767029 2.767022
												CHANNELS 3 Xrotation Yrotation Zrotation
												End Site
												{
													OFFSET -0.100327 6.053253 1.276754
												}
											}
										}
									}
								}
								JOINT mixamorig:RightHandIndex1
								{
									OFFSET -23.048981 -0.310791 4.992554
									CHANNELS 3 Xrotation Yrotation Zrotation
									JOINT mixamorig:RightHandIndex2
									{
										OFFSET -6.227539 0.000000 0.000000
										CHANNELS 3 Xrotation Yrotation Zrotation
										JOINT mixamorig:RightHandIndex3
										{
											OFFSET -6.095047 0.000000 0.000000
											CHANNELS 3 Xrotation Yrotation Zrotation
											JOINT mixamorig:RightHandIndex4
											{
												OFFSET -5.484772 0.000000 0.000000
												CHANNELS 3 Xrotation Yrotation Zrotation
												End Site
												{
													OFFSET 1.420593 5.237305 0.797056
												}
											}
										}
									}
								}
								JOINT mixamorig:RightHandRing1
								{
									OFFSET -22.246323 0.020569 -3.963762
									CHANNELS 3 Xrotation Yrotation Zrotation
									JOINT mixamorig:RightHandRing2
									{
										OFFSET -6.322128 0.000000 0.000000
										CHANNELS 3 Xrotation Yrotation Zrotation
										JOINT mixamorig:RightHandRing3
										{
											OFFSET -5.900024 0.000000 0.000000
											CHANNELS 3 Xrotation Yrotation Zrotation
											JOINT mixamorig:RightHandRing4
											{
												OFFSET -6.518356 0.000000 0.000000
												CHANNELS 3 Xrotation Yrotation Zrotation
												End Site
												{
													OFFSET 1.636398 6.232697 0.982186
												}
											}
										}
									}
								}
								JOINT mixamorig:RightHandPinky1
								{
									OFFSET -20.411011 -0.303314 -8.561701
									CHANNELS 3 Xrotation Yrotation Zrotation
									JOINT mixamorig:RightHandPinky2
									{
										OFFSET -6.907349 0.000000 0.000000
										CHANNELS 3 Xrotation Yrotation Zrotation
										JOINT mixamorig:RightHandPinky3
										{
											OFFSET -4.623840 0.000000 0.000000
											CHANNELS 3 Xrotation Yrotation Zrotation
											JOINT mixamorig:RightHandPinky4
											{
												OFFSET -5.218353 0.000000 0.000000
												CHANNELS 3 Xrotation Yrotation Zrotation
												End Site
												{
													OFFSET 0.602097 5.118835 0.816273
												}
											}
										}
									}
								}
							}
						}
					}
				}
			}
		}
	}
	JOINT mixamorig:LeftUpLeg
	{
		OFFSET 18.168400 -13.561905 -0.039000
		CHANNELS 3 Xrotation Yrotation Zrotation
		JOINT mixamorig:LeftLeg
		{
			OFFSET 0.577358 -80.825211 -3.695000
			CHANNELS 3 Xrotation Yrotation Zrotation
			JOINT mixamorig:LeftFoot
			{
				OFFSET -0.577356 -83.370262 -6.520700
				CHANNELS 3 Xrotation Yrotation Zrotation
				JOINT mixamorig:LeftToeBase
				{
					OFFSET 0.750401 -20.798306 25.135401
					CHANNELS 3 Xrotation Yrotation Zrotation
					JOINT mixamorig:LeftToe_End
					{
						OFFSET -0.000500 0.001200 19.917799
						CHANNELS 3 Xrotation Yrotation Zrotation
						End Site
						{
							OFFSET 0.000000 19.917805 0.000000
						}
					}
				}
			}
		}
	}
	JOINT mixamorig:RightUpLeg
	{
		OFFSET -18.162500 -13.585098 -0.041000
		CHANNELS 3 Xrotation Yrotation Zrotation
		JOINT mixamorig:RightLeg
		{
			OFFSET -0.595024 -80.945297 -3.631900
			CHANNELS 3 Xrotation Yrotation Zrotation
			JOINT mixamorig:RightFoot
			{
				OFFSET 0.595024 -83.218193 -6.561200
				CHANNELS 3 Xrotation Yrotation Zrotation
				JOINT mixamorig:RightToeBase
				{
					OFFSET -0.753601 -20.807106 25.115000
					CHANNELS 3 Xrotation Yrotation Zrotation
					JOINT mixamorig:RightToe_End
					{
						OFFSET 0.000299 0.001700 19.918200
						CHANNELS 3 Xrotation Yrotation Zrotation
						End Site
						{
							OFFSET 0.000000 19.918203 0.000000
						}
					}
				}
			}
		}
	}
}
MOTION
Frames: 4
Frame Time: 0.033333
0.645370 115.407516 -6.841164 -22.798099 0.669800 -2.246069 6.030244 2.660136 0.714467 12.065838 5.233737 0.876137 12.065844 5.233734 0.876139 3.934265 -3.472716 -2.061826 -5.883520 -18.538575 5.028696 0.000000 0.000000 -0.000000 0.000000 0.000000 -0.000000 0.000000 0.000000 -0.000000 1.173173 -2.220926 -19.894719 3.687264 -34.077952 -37.712616 -0.210447 -31.555177 0.009840 12.538936 -7.671834 32.370811 -12.373923 15.012969 -61.237570 -1.439033 -2.859260 -46.001047 -0.000002 0.000005 0.000003 -0.000002 0.000000 0.000002 -4.572086 -13.590573 14.995863 -11.458847 29.458964 -26.351648 0.000012 -0.000003 0.000007 0.000002 0.000002 0.000000 -3.567099 3.842329 -60.590649 -10.164945 -4.550871 -53.684477 0.000006 -0.000000 0.000000 0.000000 -0.000001 -0.000002 -11.901674 28.970401 -62.563064 -1.690066 -4.222907 -49.240381 0.000001 -0.000006 -0.000011 -0.000002 0.000001 0.000003 -15.252144 30.084822 -69.930530 -0.432648 -5.280520 -20.890156 0.000001 0.000003 0.000004 -0.000003 -0.000002 -0.000002 0.086868 15.224888 22.203507 -33.603086 23.430839 54.523047 -14.602429 26.665074 6.619384 -3.141131 14.236454 2.760044 -2.320006 10.552218 44.468971 -2.590573 2.910309 74.285315 0.000005 -0.000006 0.000003 0.000000 0.000000 -0.000001 23.380818 13.538056 5.592182 2.323318 -6.713352 -2.171905 -0.000002 0.000008 -0.000006 0.000000 0.000001 0.000000 2.187537 5.608950 37.424157 1.435526 -2.440568 69.793011 -0.000002 0.000000 -0.000003 -0.000000 0.000000 -0.000001 -3.428663 13.092781 55.668292 -2.587426 5.504394 54.530803 -0.000016 0.000005 -0.000004 -0.000001 0.000001 0.000000 -3.360185 14.852926 54.810584 -1.143351 7.545917 27.880064 -0.000008 0.000001 0.000001 0.000000 -0.000000 0.000001 -75.467778 -1.454005 7.705272 106.288364 -1.361780 -3.027875 1.894716 -1.126620 1.584827 -18.596240 -0.170403 0.617687 -0.000002 0.000000 0.000000 -71.194743 -0.579917 -14.828764 100.342978 1.596870 2.992870 -5.886480 3.565536 -1.267999 -1.545138 -0.183640 0.436063 0.000000 0.000000 0.000000 
0.622387 115.419601 -6.833794 -22.828772 0.642849 -2.295563 6.039322 2.666283 0.732402 12.083750 5.244615 0.903290 12.083750 5.244616 0.903290 3.958223 -3.473215 -2.055505 -5.903936 -18.535016 5.069603 -0.000000 0.000000 -0.000000 -0.000000 0.000000 -0.000000 -0.000000 0.000000 -0.000000 1.156183 -2.290346 -19.923691 3.880949 -34.109804 -37.540748 -0.248173 -31.582474 -0.020687 12.381360 -7.660219 32.452022 -12.294445 14.541724 -60.634998 -1.420320 -2.841091 -45.681910 -0.000003 0.000004 0.000004 0.000001 0.000001 0.000003 -4.466578 -13.401629 15.163476 -10.992856 29.655271 -26.815357 0.000009 0.000006 0.000004 0.000003 -0.000001 0.000000 -3.521457 3.659552 -59.987803 -9.924361 -4.449341 -53.404211 0.000003 0.000001 -0.000002 -0.000003 -0.000000 -0.000001 -11.823355 28.387742 -62.092164 -1.673599 -4.208697 -48.983952 0.000005 -0.000008 -0.000011 0.000001 0.000001 0.000000 -15.245938 29.493358 -69.269279 -0.464453 -5.360141 -21.626508 0.000003 0.000003 0.000002 0.000001 0.000002 0.000003 0.084305 15.276697 22.074613 -33.898488 23.137302 54.620582 -14.663793 27.131861 6.755034 -2.377457 14.031880 2.798522 -2.272881 10.326815 44.267156 -2.571309 2.904822 73.961489 0.000005 -0.000008 0.000011 0.000002 -0.000000 -0.000002 22.989650 12.894265 5.365321 2.762637 -7.337605 -1.960928 0.000002 0.000008 -0.000009 0.000002 0.000000 -0.000001 2.177650 5.591484 37.406347 1.411309 -2.432650 69.120545 -0.000001 -0.000000 0.000003 -0.000000 0.000001 -0.000004 -3.491925 12.750339 55.333941 -2.589010 5.505509 54.548831 -0.000016 0.000003 -0.000000 -0.000001 0.000000 0.000000 -3.608335 14.369523 54.736637 -1.198637 7.646810 28.550394 -0.000010 0.000001 0.000002 -0.000001 -0.000000 0.000001 -75.431257 -1.528422 7.767505 106.315330 -1.374225 -3.025268 1.854008 -1.192812 1.498913 -18.524183 -0.169622 0.614351 0.000001 0.000000 0.000000 -71.152020 -0.663154 -14.783767 100.327009 1.597190 2.992728 -5.889909 3.589377 -1.321871 -1.526609 -0.183499 0.437034 0.000000 -0.000000 -0.000000 
0.592230 115.439941 -6.830070 -22.847099 0.613195 -2.348486 6.048175 2.667770 0.739906 12.101713 5.244862 0.909504 12.101714 5.244858 0.909504 3.998884 -3.470871 -2.000164 -5.994041 -18.478160 5.036604 0.000001 -0.000000 -0.000000 0.000001 -0.000000 -0.000000 0.000001 -0.000000 -0.000000 1.129756 -2.325752 -20.041930 4.087665 -34.018748 -37.273087 -0.231385 -31.780826 -0.040777 12.263169 -7.600427 32.437682 -12.191245 14.084420 -60.035409 -1.401873 -2.822985 -45.365215 -0.000003 0.000002 0.000001 -0.000001 -0.000000 0.000001 -4.405997 -13.256728 15.188703 -10.528753 29.846998 -27.278655 0.000010 -0.000001 0.000003 0.000003 0.000004 -0.000003 -3.445626 3.493910 -59.387600 -9.681659 -4.354096 -53.126038 0.000001 0.000001 -0.000002 -0.000006 -0.000001 0.000001 -11.754498 27.804512 -61.624221 -1.657329 -4.194519 -48.729558 0.000003 -0.000008 -0.000012 -0.000005 -0.000001 -0.000002 -15.219823 28.909530 -68.617638 -0.497005 -5.438738 -22.357134 -0.000001 0.000001 0.000002 -0.000001 -0.000003 -0.000002 0.082931 15.331633 21.904656 -34.228226 22.799552 54.762220 -14.726836 27.599650 6.892183 -1.529414 13.974147 2.950829 -2.226456 10.096422 44.060997 -2.551621 2.898942 73.630839 0.000005 -0.000007 0.000009 0.000001 0.000000 -0.000001 22.700583 12.299998 5.090323 3.203481 -7.910658 -1.740689 -0.000001 0.000010 -0.000007 -0.000003 -0.000000 -0.000002 2.154290 5.535085 37.356289 1.386655 -2.424270 68.433933 -0.000002 0.000000 0.000000 -0.000000 -0.000000 0.000000 -3.533097 12.383893 54.997066 -2.593540 5.508706 54.600402 -0.000018 0.000005 0.000001 0.000001 -0.000000 -0.000001 -3.849368 13.867853 54.663042 -1.256304 7.749167 29.235044 -0.000008 0.000001 0.000002 -0.000001 -0.000000 0.000000 -75.395084 -1.595588 7.850028 106.328929 -1.396029 -3.019386 1.781559 -1.269022 1.421123 -18.436791 -0.168688 0.610313 -0.000001 -0.000001 -0.000000 -71.114864 -0.752735 -14.700966 100.296007 1.591162 2.991944 -5.886815 3.600982 -1.400254 -1.494765 -0.183256 0.438700 -0.000000 0.000001 0.000000 
0.527471 115.500961 -6.826683 -22.869830 0.583324 -2.460476 6.048481 2.656884 0.750108 12.103002 5.216170 0.913575 12.103006 5.216172 0.913575 4.044372 -3.457353 -1.764808 -6.045333 -18.187248 4.692451 -0.000000 0.000001 -0.000000 -0.000000 0.000001 -0.000000 -0.000000 0.000001 -0.000000 1.103902 -2.228874 -20.206666 4.286606 -33.842983 -36.987797 -0.190699 -32.086559 -0.060297 12.238330 -7.455884 32.393231 -12.066663 13.642305 -59.440794 -1.383716 -2.804951 -45.052071 -0.000001 0.000002 -0.000003 0.000001 -0.000000 0.000001 -4.347873 -13.120383 15.216731 -10.071076 30.035064 -27.741457 0.000013 0.000003 0.000003 0.000005 -0.000002 -0.000000 -3.343579 3.345043 -58.792219 -9.438060 -4.264570 -52.850805 0.000003 -0.000002 -0.000005 0.000001 0.000001 0.000001 -11.693384 27.223034 -61.161066 -1.641278 -4.180423 -48.478005 0.000000 -0.000004 -0.000009 -0.000002 0.000001 -0.000000 -15.175425 28.335258 -67.977328 -0.530215 -5.516000 -23.079657 0.000004 -0.000001 0.000000 -0.000002 0.000001 0.000004 0.076792 15.405630 21.723695 -34.300582 22.755597 54.770679 -14.788039 28.043169 7.023299 -1.062965 14.167943 3.398927 -2.180987 9.861915 43.851218 -2.531668 2.892845 73.294541 0.000005 -0.000008 0.000011 0.000002 -0.000000 0.000005 22.510924 11.755340 4.772183 3.640669 -8.434028 -1.510476 0.000003 0.000008 -0.000002 -0.000003 0.000002 -0.000002 2.117233 5.446142 37.277175 1.361702 -2.415437 67.735690 -0.000002 0.000000 -0.000001 -0.000000 -0.000000 -0.000001 -3.555393 11.996265 54.658162 -2.600683 5.513760 54.681811 -0.000018 0.000004 -0.000003 -0.000001 0.000001 0.000000 -4.083900 13.350587 54.589249 -1.316231 7.852549 29.931590 -0.000009 0.000002 0.000003 0.000001 0.000000 0.000002 -75.355196 -1.714835 8.027064 106.340786 -1.425483 -3.009491 1.748520 -1.408571 1.307890 -18.375266 -0.168042 0.607467 -0.000000 0.000000 0.000000 -71.036003 -0.938510 -14.581766 100.227979 1.583303 2.988832 -5.890423 3.611806 -1.514629 -1.447386 -0.182895 0.441187 -0.000000 -0.000000 0.000000 
